<?xml version="1.0" encoding="utf-8"?>
<?xml-stylesheet type="text/xsl" href="rss1.xsl"?>
<rss version="2.0" xmlns:atom="http://www.w3.org/2005/Atom" xmlns:content="http://purl.org/rss/1.0/modules/content/" xmlns:dc="http://purl.org/dc/elements/1.1/" xmlns:media="http://search.yahoo.com/mrss/">
<channel>
 <title>Getty</title>
 <link>http://www.gettyimg.com/</link>
 <atom:link href="http://www.gettyimg.com/" rel="self" type="application/rss+xml" />

 
                <item>
                <title><![CDATA[【Cinema Center】MOVIE - The Abyss (1989) 1080p Amazon WEB-DL DD+5.1 H.264 - QOQ]]></title>
                <link><![CDATA[https://sharemania.us/threads/the-abyss-1989-1080p-amazon-web-dl-dd-5-1-h-264-qoq.240186/]]></link>
                <description><![CDATA[<article>
<blockquote class="messageText SelectQuoteContainer ugc baseHtml">
<div style="text-align: center"><img src="https://m.media-amazon.com/images/M/MV5BYmU4NmUxZjEtYjY0OC00ZDAwLTg0MGQtMDRkNDk5NWQ0OTQ5XkEyXkFqcGdeQXVyMjUzOTY1NTc@._V1_FMjpg_UY2879_.jpg" class="bbCodeImage LbImage" alt="[​IMG]" data-url="https://m.media-amazon.com/images/M/MV5BYmU4NmUxZjEtYjY0OC00ZDAwLTg0MGQtMDRkNDk5NWQ0OTQ5XkEyXkFqcGdeQXVyMjUzOTY1NTc@._V1_FMjpg_UY2879_.jpg" style=""> <br>
<br>
A civilian diving team is enlisted to search for a lost nuclear submarine and faces danger while encountering an alien aquatic species.<br>
<br>
Download:<br>
<br>
<div class="bbCodeBlock bbCodeVfcHH HiddenContent">
<div class="attribution type">Hidden Content:</div>
<blockquote>You must either reply or click 'Like' to see the hidden information contained here.</blockquote>
</div></div>
<div class="messageTextEndMarker">&nbsp;</div>
</blockquote>
</article>]]></description>
                <author><![CDATA[sunnyillion]]></author>
                </item>

                
                <item>
                <title><![CDATA[【Cinema Center】SERIES - Big Time Rush - Season 1 - 1080p Amazon WEB-DL DD+2.0 x264-QOQ]]></title>
                <link><![CDATA[https://sharemania.us/threads/big-time-rush-season-1-1080p-amazon-web-dl-dd-2-0-x264-qoq.240184/]]></link>
                <description><![CDATA[<article>
<blockquote class="messageText SelectQuoteContainer ugc baseHtml">
Big Time Rush:<img src="http:////cdn2.broadcasthe.net/tvdb/banners/graphical/142831-g3.jpg" class="bbCodeImage LbImage" alt="[​IMG]" data-url="http:////cdn2.broadcasthe.net/tvdb/banners/graphical/142831-g3.jpg" style=""> <br>
<br>
<div class="bbCodeBlock bbCodeQuote">
<aside>
<blockquote class="quoteContainer"><div class="quote"><i><b>Synopsis:</b></i><br>
Big Time Rush is a series about friendship and brotherhood that chronicles the finding, making and breaking – of a potential chart-topping music group. Each of the guys brings something different to the group as they figure out their place in the crazy business of music and entertainment.</div><div class="quoteExpand">Click to expand...</div></blockquote>
</aside>
</div>
<div class="ToggleTriggerAnchor bbCodeSpoilerContainer">
<button type="button" class="button bbCodeSpoilerButton ToggleTrigger Tooltip JsOnly" data-target="> .SpoilerTarget"><span>Spoiler: <span class="SpoilerTitle">MediaInfo</span></span></button>
<div class="SpoilerTarget bbCodeSpoilerText">General<br>
Unique ID : 226999488104876447709329469516057220787 (0xAAC682DABCE76B57859E7B66FA3D16B3)<br>
Complete name : Big.Time.Rush.S01E01.Big.Time.Audition.1080p.Amazon.WEB-DL.DD+2.0.x264-QOQ.mkv<br>
Format : Matroska<br>
Format version : Version 4 / Version 2<br>
File size : 3.59 GiB<br>
Duration : 48 min 3 s<br>
Overall bit rate mode : Variable<br>
Overall bit rate : 10.7 Mb/s<br>
Encoded date : UTC 2017-07-20 07:38:07<br>
Writing application : mkvmerge v13.0.0 ('The Juggler') 64bit<br>
Writing library : libebml v1.3.4 + libmatroska v1.4.5<br>
<br>
Video<br>
ID : 1<br>
Format : AVC<br>
Format/Info : Advanced Video Codec<br>
Format profile : High@L4<br>
Format settings, CABAC : Yes<br>
Format settings, ReFrames : 4 frames<br>
Codec ID : V_MPEG4/ISO/AVC<br>
Duration : 48 min 3 s<br>
Bit rate mode : Variable<br>
Bit rate : 10.5 Mb/s<br>
Maximum bit rate : 15.0 Mb/s<br>
Width : 1 920 pixels<br>
Height : 1 080 pixels<br>
Display aspect ratio : 16:9<br>
Frame rate mode : Constant<br>
Frame rate : 23.976 (24000/1001) FPS<br>
Color space : YUV<br>
Chroma subsampling : 4:2:0<br>
Bit depth : 8 bits<br>
Scan type : Progressive<br>
Bits/(Pixel*Frame) : 0.210<br>
Stream size : 3.51 GiB (98%)<br>
Writing library : x264 core 148 r2623 d5b2374<br>
Encoding settings : cabac=1 / ref=4 / deblock=1:-1:-1 / analyse=0x3:0x133 / me=umh / subme=9 / psy=1 / psy_rd=1.00:0.15 / mixed_ref=1 / me_range=24 / chroma_me=1 / trellis=2 / 8x8dct=1 / cqm=0 / deadzone=21,11 / fast_pskip=1 / chroma_qp_offset=-3 / threads=34 / lookahead_threads=5 / sliced_threads=0 / nr=150 / decimate=1 / interlaced=0 / bluray_compat=0 / constrained_intra=0 / bframes=8 / b_pyramid=2 / b_adapt=2 / b_bias=0 / direct=3 / weightb=1 / open_gop=0 / weightp=2 / keyint=120 / keyint_min=61 / scenecut=0 / intra_refresh=0 / rc_lookahead=120 / rc=crf / mbtree=1 / crf=18.0 / qcomp=0.60 / qpmin=0 / qpmax=69 / qpstep=4 / vbv_maxrate=15000 / vbv_bufsize=31250 / crf_max=0.0 / nal_hrd=vbr / filler=0 / ip_ratio=1.40 / aq=3:1.00<br>
Default : Yes<br>
Forced : No<br>
Color range : Limited<br>
Color primaries : BT.709<br>
Transfer characteristics : BT.709<br>
Matrix coefficients : BT.709<br>
<br>
Audio<br>
ID : 2<br>
Format : E-AC-3<br>
Format/Info : Enhanced Audio Coding 3<br>
Format settings, Endianness : Big<br>
Codec ID : A_EAC3<br>
Duration : 48 min 3 s<br>
Bit rate mode : Constant<br>
Bit rate : 224 kb/s<br>
Channel(s) : 2 channels<br>
Channel positions : Front: L R<br>
Sampling rate : 48.0 kHz<br>
Frame rate : 187.500 FPS (256 spf)<br>
Compression mode : Lossy<br>
Stream size : 77.0 MiB (2%)<br>
Language : English<br>
Service kind : Complete Main<br>
Default : Yes<br>
Forced : No<br>
<br>
Text<br>
ID : 3<br>
Format : UTF-8<br>
Codec ID : S_TEXT/UTF8<br>
Codec ID/Info : UTF-8 Plain Text<br>
Duration : 47 min 8 s<br>
Bit rate : 84 b/s<br>
Count of elements : 1350<br>
Stream size : 29.3 KiB (0%)<br>
Language : English<br>
Default : No<br>
Forced : No</div>
</div><br>
Screenshots:<br>
<img src="https://ptpimg.me/9ed685.jpg" class="bbCodeImage LbImage" alt="[​IMG]" data-url="https://ptpimg.me/9ed685.jpg" style=""> <br>
<br>
<div class="bbCodeBlock bbCodeVfcHH HiddenContent">
<div class="attribution type">Hidden Content:</div>
<blockquote>You must either reply or click 'Like' to see the hidden information contained here.</blockquote>
</div>
<div class="messageTextEndMarker">&nbsp;</div>
</blockquote>
</article>]]></description>
                <author><![CDATA[LazyRips]]></author>
                </item>

                
                <item>
                <title><![CDATA[【Requests】[REQ AUD] - Pocahontas Trilha sonora]]></title>
                <link><![CDATA[https://sharemania.us/threads/pocahontas-trilha-sonora.240185/]]></link>
                <description><![CDATA[<article>
<blockquote class="messageText SelectQuoteContainer ugc baseHtml">
Alguém possui o cd br do filme?
<div class="messageTextEndMarker">&nbsp;</div>
</blockquote>
</article>]]></description>
                <author><![CDATA[brendo098]]></author>
                </item>

                
                <item>
                <title><![CDATA[【Cinema Center】SERIES - O11CE - Season 1 - 1080p Disney+ WEB-DL AAC2.0 H.264-LAZY]]></title>
                <link><![CDATA[https://sharemania.us/threads/o11ce-season-1-1080p-disney-web-dl-aac2-0-h-264-lazy.240183/]]></link>
                <description><![CDATA[<article>
<blockquote class="messageText SelectQuoteContainer ugc baseHtml">
O11CE:<img src="http:////cdn2.broadcasthe.net/tvdb/banners/graphical/323858-g2.jpg" class="bbCodeImage LbImage" alt="[​IMG]" data-url="http:////cdn2.broadcasthe.net/tvdb/banners/graphical/323858-g2.jpg" style=""> <br>
<br>
<div class="bbCodeBlock bbCodeQuote">
<aside>
<blockquote class="quoteContainer"><div class="quote"><i><b>Synopsis:</b></i><br>
Gabo is a young soccer lover who leaves the small town of Álamo Seco, where he was born and raised, to study at the Academic Sports Institute, with a bag to be a Golden Hawk, that is, a member of the famous amateur team of the school. Gabo has never been so close to realizing his dream, but between secrets unearthed from family and disagreements between colleagues, the young man realizes that he must overcome many challenges to become a great football player.</div><div class="quoteExpand">Click to expand...</div></blockquote>
</aside>
</div>
<div class="ToggleTriggerAnchor bbCodeSpoilerContainer">
<button type="button" class="button bbCodeSpoilerButton ToggleTrigger Tooltip JsOnly" data-target="> .SpoilerTarget"><span>Spoiler: <span class="SpoilerTitle">MediaInfo</span></span></button>
<div class="SpoilerTarget bbCodeSpoilerText">General<br>
Unique ID : 182219130979706527966980298706066305598 (0x891620C9CFD20717CCF134DD5D93723E)<br>
Complete name : O11CE.S01E01.Episode.1.1080p.DSNP.WEB-DL.AAC2.0.H.264-LAZY.mkv<br>
Format : Matroska<br>
Format version : Version 4<br>
File size : 1.49 GiB<br>
Duration : 24 min 25 s<br>
Overall bit rate mode : Variable<br>
Overall bit rate : 8 748 kb/s<br>
Encoded date : UTC 2024-03-15 11:55:32<br>
Writing application : mkvmerge v82.0 ('I'm The President') 64-bit<br>
Writing library : libebml v1.4.5 + libmatroska v1.7.1<br>
<br>
Video<br>
ID : 1<br>
Format : AVC<br>
Format/Info : Advanced Video Codec<br>
Format profile : High@L4<br>
Format settings : CABAC / 4 Ref Frames<br>
Format settings, CABAC : Yes<br>
Format settings, Reference frames : 4 frames<br>
Codec ID : V_MPEG4/ISO/AVC<br>
Duration : 24 min 25 s<br>
Bit rate mode : Variable<br>
Bit rate : 8 493 kb/s<br>
Maximum bit rate : 12.7 Mb/s<br>
Width : 1 920 pixels<br>
Height : 1 080 pixels<br>
Display aspect ratio : 16:9<br>
Frame rate mode : Constant<br>
Frame rate : 23.976 (24000/1001) FPS<br>
Color space : YUV<br>
Chroma subsampling : 4:2:0<br>
Bit depth : 8 bits<br>
Scan type : Progressive<br>
Bits/(Pixel*Frame) : 0.171<br>
Stream size : 1.45 GiB (97%)<br>
Default : Yes<br>
Forced : No<br>
Color range : Limited<br>
Color primaries : BT.709<br>
Transfer characteristics : BT.709<br>
Matrix coefficients : BT.709<br>
<br>
Audio #1<br>
ID : 2<br>
Format : AAC LC<br>
Format/Info : Advanced Audio Codec Low Complexity<br>
Codec ID : A_AAC-2<br>
Duration : 24 min 25 s<br>
Bit rate : 125 kb/s<br>
Channel(s) : 2 channels<br>
Channel layout : L R<br>
Sampling rate : 48.0 kHz<br>
Frame rate : 46.875 FPS (1024 SPF)<br>
Compression mode : Lossy<br>
Stream size : 21.9 MiB (1%)<br>
Language : English<br>
Default : Yes<br>
Forced : No<br>
<br>
Audio #2<br>
ID : 3<br>
Format : AAC LC<br>
Format/Info : Advanced Audio Codec Low Complexity<br>
Codec ID : A_AAC-2<br>
Duration : 24 min 25 s<br>
Bit rate : 125 kb/s<br>
Channel(s) : 2 channels<br>
Channel layout : L R<br>
Sampling rate : 48.0 kHz<br>
Frame rate : 46.875 FPS (1024 SPF)<br>
Compression mode : Lossy<br>
Stream size : 21.9 MiB (1%)<br>
Title : Latin American<br>
Language : Spanish<br>
Default : No<br>
Forced : No<br>
<br>
Text #1<br>
ID : 4<br>
Format : UTF-8<br>
Codec ID : S_TEXT/UTF8<br>
Codec ID/Info : UTF-8 Plain Text<br>
Duration : 24 min 19 s<br>
Bit rate : 95 b/s<br>
Count of elements : 458<br>
Stream size : 17.1 KiB (0%)<br>
Title : SDH<br>
Language : English<br>
Default : No<br>
Forced : No<br>
<br>
Text #2<br>
ID : 5<br>
Format : UTF-8<br>
Codec ID : S_TEXT/UTF8<br>
Codec ID/Info : UTF-8 Plain Text<br>
Duration : 23 min 37 s<br>
Bit rate : 81 b/s<br>
Count of elements : 419<br>
Stream size : 14.1 KiB (0%)<br>
Language : German<br>
Default : No<br>
Forced : No<br>
<br>
Text #3<br>
ID : 6<br>
Format : UTF-8<br>
Codec ID : S_TEXT/UTF8<br>
Codec ID/Info : UTF-8 Plain Text<br>
Duration : 23 min 37 s<br>
Bit rate : 76 b/s<br>
Count of elements : 437<br>
Stream size : 13.3 KiB (0%)<br>
Language : Finnish<br>
Default : No<br>
Forced : No<br>
<br>
Text #4<br>
ID : 7<br>
Format : UTF-8<br>
Codec ID : S_TEXT/UTF8<br>
Codec ID/Info : UTF-8 Plain Text<br>
Duration : 24 min 16 s<br>
Bit rate : 68 b/s<br>
Count of elements : 416<br>
Stream size : 12.3 KiB (0%)<br>
Title : SDH<br>
Language : French<br>
Default : No<br>
Forced : No<br>
<br>
Text #5<br>
ID : 8<br>
Format : UTF-8<br>
Codec ID : S_TEXT/UTF8<br>
Codec ID/Info : UTF-8 Plain Text<br>
Duration : 23 min 43 s<br>
Bit rate : 97 b/s<br>
Count of elements : 450<br>
Stream size : 16.9 KiB (0%)<br>
Language : Korean<br>
Default : No<br>
Forced : No<br>
<br>
Text #6<br>
ID : 9<br>
Format : UTF-8<br>
Codec ID : S_TEXT/UTF8<br>
Codec ID/Info : UTF-8 Plain Text<br>
Duration : 23 min 43 s<br>
Bit rate : 75 b/s<br>
Count of elements : 450<br>
Stream size : 13.2 KiB (0%)<br>
Title : Simplified<br>
Language : Chinese<br>
Default : No<br>
Forced : No<br>
<br>
Text #7<br>
ID : 10<br>
Format : UTF-8<br>
Codec ID : S_TEXT/UTF8<br>
Codec ID/Info : UTF-8 Plain Text<br>
Duration : 23 min 43 s<br>
Bit rate : 79 b/s<br>
Count of elements : 450<br>
Stream size : 13.7 KiB (0%)<br>
Title : Traditional<br>
Language : Chinese<br>
Default : No<br>
Forced : No<br>
<br>
Menu<br>
00:00:00.040 : en:Intro<br>
00:00:43.043 : en:Scene 1<br>
00:16:41.919 : en:Scene 2<br>
00:21:22.824 : en:Scene 3<br>
00:23:59.439 : en:Credits</div>
</div><br>
Screenshots:<br>
<img src="https://ptpimg.me/x702wz.jpg" class="bbCodeImage LbImage" alt="[​IMG]" data-url="https://ptpimg.me/x702wz.jpg" style=""> <br>
<br>
<div class="bbCodeBlock bbCodeVfcHH HiddenContent">
<div class="attribution type">Hidden Content:</div>
<blockquote>You must either reply or click 'Like' to see the hidden information contained here.</blockquote>
</div>
<div class="messageTextEndMarker">&nbsp;</div>
</blockquote>
</article>]]></description>
                <author><![CDATA[LazyRips]]></author>
                </item>

                </channel></rss>